<svg viewBox="0 0 500 500" xmlns="http://www.w3.org/2000/svg" style="background: transparent;">
  <path d="M 250 396.253 C 177.028 396.253 116.538 342.811 105.534 272.931 L 3.284 272.931 C 14.855 399.017 120.896 497.763 250 497.763 C 379.105 497.763 485.145 399.017 496.716 272.931 L 394.466 272.931 C 383.462 342.811 322.972 396.253 250 396.253 Z M 250 103.747 C 320.815 103.747 379.876 154.077 393.362 220.918 L 496.074 220.918 C 481.678 97.786 376.998 2.237 250 2.237 C 123.002 2.237 18.322 97.786 3.926 220.918 L 106.638 220.918 C 120.124 154.077 179.185 103.747 250 103.747 Z" style="fill: white;"/>
  <ellipse style="fill: white;" cx="250" cy="250" rx="86.968" ry="86.968"/>
</svg>
